<svg width="24" height="24" viewBox="0 0 24 24" fill="none" xmlns="http://www.w3.org/2000/svg">
<path d="M18.2222 12.2222V14.8148C18.2222 16.19 17.5667 17.5089 16.3997 18.4813C15.2329 19.4537 13.6502 20 12 20C10.3498 20 8.76712 19.4537 7.60022 18.4813C6.43333 17.5089 5.77778 16.19 5.77778 14.8148V12.2222M18.2222 12.2222H5.77778M18.2222 12.2222C19.2041 12.2222 20 11.5258 20 10.6667V7.55556C20 6.69645 19.2041 6 18.2222 6H5.77778C4.79594 6 4 6.69645 4 7.55556V10.6667C4 11.5258 4.79594 12.2222 5.77778 12.2222" stroke="#2A7DE1" stroke-width="1.5"/>
<path d="M3 22L22 3" stroke="#2A7DE1" stroke-width="1.5" stroke-linecap="round"/>
</svg>
