<svg width="24" height="24" viewBox="0 0 24 24" fill="none" xmlns="http://www.w3.org/2000/svg">
<path fill-rule="evenodd" clip-rule="evenodd" d="M5 4.75C4.22416 4.75 3.75 5.29076 3.75 5.77778L3.75 9.33333C3.75 9.82035 4.22416 10.3611 5 10.3611L19 10.3611C19.7758 10.3611 20.25 9.82036 20.25 9.33333V5.77778C20.25 5.29076 19.7758 4.75 19 4.75L5 4.75ZM2.25 5.77778C2.25 4.30112 3.5667 3.25 5 3.25L19 3.25C20.4333 3.25 21.75 4.30112 21.75 5.77778V9.33333C21.75 10.5462 20.8616 11.4721 19.75 11.7641V14.0741C19.75 15.8888 18.8975 17.5981 17.4343 18.8368C15.975 20.0722 14.0188 20.75 12 20.75C9.98121 20.75 8.025 20.0722 6.56566 18.8368C5.10254 17.5981 4.25 15.8888 4.25 14.0741L4.25 11.7641C3.13836 11.4721 2.25 10.5462 2.25 9.33333L2.25 5.77778ZM5.75 11.8611L5.75 14.0741C5.75 15.4027 6.37245 16.7079 7.53484 17.6919C8.70101 18.6791 10.3058 19.25 12 19.25C13.6942 19.25 15.299 18.6791 16.4652 17.6919C17.6275 16.7079 18.25 15.4027 18.25 14.0741V11.8611L5.75 11.8611Z" fill="#006F94"/>
</svg>
