<svg width="24" height="24" viewBox="0 0 24 24" fill="none" xmlns="http://www.w3.org/2000/svg">
<path fill-rule="evenodd" clip-rule="evenodd" d="M12.7831 3.66166C12.6237 3.50226 12.4075 3.41271 12.1821 3.41271C11.9567 3.41271 11.7405 3.50226 11.5811 3.66166L3.66179 11.581C3.50239 11.7404 3.41284 11.9566 3.41284 12.182C3.41284 12.4074 3.50239 12.6236 3.66179 12.783L11.5811 20.7023C11.7405 20.8617 11.9567 20.9513 12.1821 20.9513C12.4075 20.9513 12.6237 20.8617 12.7831 20.7023L20.7025 12.783C20.8619 12.6236 20.9514 12.4074 20.9514 12.182C20.9514 11.9566 20.8619 11.7404 20.7025 11.581L12.7831 3.66166ZM12.1821 1.91271C12.8054 1.91271 13.4031 2.16029 13.8438 2.601L21.7631 10.5203C22.2038 10.961 22.4514 11.5588 22.4514 12.182C22.4514 12.8052 22.2038 13.403 21.7631 13.8437L13.8438 21.763C13.4031 22.2037 12.8054 22.4513 12.1821 22.4513C11.5589 22.4513 10.9612 22.2037 10.5205 21.763L2.60113 13.8437C2.16042 13.403 1.91284 12.8052 1.91284 12.182C1.91284 11.5588 2.16042 10.961 2.60113 10.5203L10.5205 2.601C10.9612 2.16029 11.5589 1.91271 12.1821 1.91271Z" fill="#006F94"/>
</svg>
