<svg width="24" height="24" viewBox="0 0 24 24" fill="none" xmlns="http://www.w3.org/2000/svg">
<path fill-rule="evenodd" clip-rule="evenodd" d="M8 3.75C7.66848 3.75 7.35054 3.8817 7.11612 4.11612C6.8817 4.35054 6.75 4.66848 6.75 5V20.25H17.25V5C17.25 4.66848 17.1183 4.35054 16.8839 4.11612C16.6495 3.8817 16.3315 3.75 16 3.75H8ZM18.75 20.25V5C18.75 4.27065 18.4603 3.57118 17.9445 3.05546C17.4288 2.53973 16.7293 2.25 16 2.25H8C7.27065 2.25 6.57118 2.53973 6.05546 3.05546C5.53973 3.57118 5.25 4.27065 5.25 5V20.25H3C2.58579 20.25 2.25 20.5858 2.25 21C2.25 21.4142 2.58579 21.75 3 21.75H21C21.4142 21.75 21.75 21.4142 21.75 21C21.75 20.5858 21.4142 20.25 21 20.25H18.75Z" fill="#006F94"/>
<path d="M10 13C10 13.5523 9.55228 14 9 14C8.44772 14 8 13.5523 8 13C8 12.4477 8.44772 12 9 12C9.55228 12 10 12.4477 10 13Z" fill="#006F94"/>
</svg>
