<svg width="24" height="24" viewBox="0 0 24 24" fill="none" xmlns="http://www.w3.org/2000/svg">
<path fill-rule="evenodd" clip-rule="evenodd" d="M9.61022 2.25803C10.2226 1.8983 10.9776 1.77092 11.736 1.9816L16.736 3.37049C17.9263 3.70111 18.75 4.78484 18.75 6.02016V18.9798C18.75 19.4336 18.6388 19.8669 18.4392 20.25H20C20.4142 20.25 20.75 20.5858 20.75 21C20.75 21.4142 20.4142 21.75 20 21.75H16.5C16.4499 21.75 16.401 21.7451 16.3536 21.7357L11.736 23.0184C10.4744 23.3688 9.22238 22.7838 8.62015 21.75H3C2.58579 21.75 2.25 21.4142 2.25 21C2.25 20.5858 2.58579 20.25 3 20.25H5.01929V4.99999C5.01929 4.28915 5.27939 3.59655 5.75891 3.07706C6.2403 2.55556 6.90665 2.24999 7.61544 2.24999H9.5C9.53744 2.24999 9.57425 2.25273 9.61022 2.25803ZM8.3931 3.74999H7.61544C7.34497 3.74999 7.07217 3.86584 6.86112 4.09448C6.6482 4.32515 6.51929 4.64996 6.51929 4.99999V20.25H8.25V4.63127C8.25 4.32074 8.30055 4.02482 8.3931 3.74999ZM11.3346 3.42687C10.5381 3.20562 9.75 3.80462 9.75 4.63127V20.3687C9.75 21.1954 10.5381 21.7944 11.3346 21.5731L16.3346 20.1842C16.8756 20.0339 17.25 19.5413 17.25 18.9798V6.02016C17.25 5.45865 16.8756 4.96605 16.3346 4.81576L11.3346 3.42687Z" fill="#006F94"/>
<path d="M13 13C13 13.5523 12.5523 14 12 14C11.4477 14 11 13.5523 11 13C11 12.4477 11.4477 12 12 12C12.5523 12 13 12.4477 13 13Z" fill="#006F94"/>
</svg>
