<svg width="24" height="24" viewBox="0 0 24 24" fill="none" xmlns="http://www.w3.org/2000/svg">
<path fill-rule="evenodd" clip-rule="evenodd" d="M10.2271 4.81873C10.2158 4.81495 10.2035 4.81535 10.1924 4.81986C10.1814 4.82436 10.1723 4.83266 10.1668 4.84328C10.1456 4.88456 10.1205 4.92378 10.092 4.96043L6.59201 9.46043C6.44992 9.64312 6.23144 9.74997 6 9.74997H4C3.9337 9.74997 3.87011 9.77631 3.82322 9.8232C3.77634 9.87008 3.75 9.93367 3.75 9.99997V14C3.75 14.0663 3.77634 14.1299 3.82322 14.1767C3.87011 14.2236 3.9337 14.25 4 14.25H6C6.23144 14.25 6.44992 14.3568 6.59201 14.5395L10.092 19.0395C10.1205 19.0762 10.1456 19.1154 10.1668 19.1567C10.1723 19.1673 10.1814 19.1756 10.1924 19.1801C10.2035 19.1846 10.2158 19.185 10.2271 19.1812C10.2384 19.1774 10.248 19.1697 10.2541 19.1595C10.2603 19.1493 10.2626 19.1372 10.2606 19.1254C10.2535 19.084 10.25 19.042 10.25 19V4.99997C10.25 4.95793 10.2535 4.91597 10.2606 4.87453C10.2626 4.86276 10.2603 4.85067 10.2541 4.84043C10.248 4.8302 10.2384 4.8225 10.2271 4.81873ZM9.62657 3.43067C9.9692 3.29111 10.3504 3.27871 10.7014 3.3957C11.0524 3.5127 11.35 3.75137 11.5403 4.06859C11.7181 4.36478 11.7914 4.71121 11.75 5.05275V18.9472C11.7914 19.2887 11.7181 19.6352 11.5403 19.9314C11.35 20.2486 11.0524 20.4872 10.7014 20.6042C10.3504 20.7212 9.9692 20.7088 9.62657 20.5693C9.30905 20.4399 9.0441 20.2093 8.87219 19.9144L5.63319 15.75H4C3.53587 15.75 3.09075 15.5656 2.76256 15.2374C2.43437 14.9092 2.25 14.4641 2.25 14V9.99997C2.25 9.53584 2.43437 9.09072 2.76256 8.76254C3.09075 8.43435 3.53587 8.24997 4 8.24997H5.63319L8.87219 4.08554C9.0441 3.79064 9.30905 3.56001 9.62657 3.43067ZM15.4697 9.46967C15.7626 9.17678 16.2374 9.17678 16.5303 9.46967L18 10.9393L19.4697 9.46967C19.7626 9.17678 20.2374 9.17678 20.5303 9.46967C20.8232 9.76256 20.8232 10.2374 20.5303 10.5303L19.0607 12L20.5303 13.4697C20.8232 13.7626 20.8232 14.2374 20.5303 14.5303C20.2374 14.8232 19.7626 14.8232 19.4697 14.5303L18 13.0607L16.5303 14.5303C16.2374 14.8232 15.7626 14.8232 15.4697 14.5303C15.1768 14.2374 15.1768 13.7626 15.4697 13.4697L16.9393 12L15.4697 10.5303C15.1768 10.2374 15.1768 9.76256 15.4697 9.46967Z" fill="#006F94"/>
</svg>
